<?xml version="1.0" encoding="utf-8"?>
<!-- Generator: Adobe Illustrator 20.1.0, SVG Export Plug-In . SVG Version: 6.00 Build 0)  -->
<svg version="1.1" id="Layer_6_copy_3" xmlns="http://www.w3.org/2000/svg" xmlns:xlink="http://www.w3.org/1999/xlink" x="0px"
	 y="0px" viewBox="0 0 1080.1 368" style="enable-background:new 0 0 1080.1 368;" xml:space="preserve">
<style type="text/css">
	.st0{fill:#4F5858;}
	.st1{fill:#6CC04A;}
	.st2{fill:none;stroke:#4F5858;stroke-miterlimit:10;}
</style>
<g>
	<path class="st0" d="M429.2,237.9c0,3.8-0.6,7.4-1.7,10.6c-1.2,3.2-2.9,6-5.2,8.4c-2.3,2.4-5.1,4.2-8.6,5.6c-3.4,1.3-7.4,2-11.8,2
		c-4.5,0-8.5-0.7-11.9-2c-3.4-1.3-6.3-3.2-8.6-5.6c-2.3-2.4-4-5.2-5.2-8.4c-1.2-3.2-1.7-6.8-1.7-10.6v-39.8h14.3v39.3
		c0,2,0.3,3.9,1,5.6c0.6,1.7,1.5,3.2,2.7,4.4c1.2,1.3,2.5,2.2,4.2,2.9c1.6,0.7,3.4,1.1,5.3,1.1c1.9,0,3.6-0.4,5.2-1.1
		c1.6-0.7,3-1.7,4.1-2.9c1.2-1.3,2.1-2.7,2.7-4.4c0.6-1.7,1-3.6,1-5.6v-39.3h14.3V237.9z"/>
	<path class="st0" d="M446,198.1h19.4l27.6,45.1h0.2v-45.1h14.3v64.8h-18.7l-28.3-46.2h-0.2v46.2H446V198.1z"/>
	<path class="st0" d="M524.2,198.1h14.3v64.8h-14.3V198.1z"/>
	<path class="st0" d="M552.4,198.1h16.3l16,42.5h0.2l16.3-42.5h15.3l-26.7,64.8h-11.4L552.4,198.1z"/>
	<path class="st0" d="M627.5,198.1h44.1v13.2h-29.8v12.1h28.1v13.2h-28.1v13.2h31.4v13.2h-45.7V198.1z"/>
	<path class="st0" d="M688.3,198.1h25.1c3.3,0,6.4,0.3,9.4,1c3,0.6,5.6,1.7,7.8,3.2c2.2,1.5,4,3.5,5.3,6c1.3,2.5,2,5.7,2,9.5
		c0,4.6-1.2,8.5-3.6,11.7c-2.4,3.2-5.9,5.2-10.4,6.1l16.5,27.4h-17.1L709.6,237h-7.1v25.9h-14.3V198.1z M702.6,224.9h8.4
		c1.3,0,2.6,0,4.1-0.1s2.7-0.4,3.9-0.8c1.2-0.5,2.1-1.2,2.9-2.2c0.8-1,1.1-2.3,1.1-4.1c0-1.6-0.3-3-1-3.9c-0.7-1-1.5-1.7-2.6-2.2
		c-1-0.5-2.2-0.9-3.6-1.1c-1.3-0.2-2.7-0.3-3.9-0.3h-9.3V224.9z"/>
	<path class="st0" d="M785.2,213.9c-1.2-1.5-2.7-2.5-4.7-3.3c-2-0.7-3.9-1.1-5.6-1.1c-1,0-2.1,0.1-3.2,0.4c-1.1,0.2-2.1,0.6-3.1,1.1
		c-1,0.5-1.8,1.2-2.4,2.1c-0.6,0.9-0.9,1.9-0.9,3.1c0,2,0.7,3.5,2.2,4.5c1.5,1,3.3,1.9,5.5,2.7c2.2,0.7,4.6,1.5,7.2,2.2
		s5,1.8,7.2,3.1c2.2,1.3,4.1,3.1,5.5,5.4c1.5,2.3,2.2,5.3,2.2,9.1c0,3.6-0.7,6.7-2,9.4c-1.3,2.7-3.2,4.9-5.4,6.7
		c-2.3,1.8-4.9,3.1-8,3.9s-6.2,1.3-9.6,1.3c-4.2,0-8.1-0.6-11.7-1.9c-3.6-1.3-7-3.4-10.1-6.2l10.2-11.2c1.5,2,3.3,3.5,5.5,4.5
		c2.2,1.1,4.5,1.6,6.9,1.6c1.2,0,2.3-0.1,3.5-0.4c1.2-0.3,2.3-0.7,3.2-1.2c0.9-0.5,1.7-1.2,2.3-2.1c0.6-0.9,0.9-1.9,0.9-3
		c0-2-0.7-3.5-2.2-4.6c-1.5-1.1-3.4-2.1-5.6-2.9c-2.3-0.8-4.7-1.6-7.3-2.4c-2.6-0.8-5.1-1.9-7.3-3.2c-2.3-1.3-4.1-3.1-5.6-5.3
		c-1.5-2.2-2.2-5.1-2.2-8.7c0-3.5,0.7-6.5,2.1-9.2c1.4-2.6,3.2-4.8,5.5-6.6c2.3-1.8,4.9-3.1,7.9-4c3-0.9,6.1-1.3,9.3-1.3
		c3.7,0,7.2,0.5,10.6,1.6c3.4,1,6.5,2.8,9.2,5.2L785.2,213.9z"/>
	<path class="st0" d="M807.3,198.1h14.3v64.8h-14.3V198.1z"/>
	<path class="st0" d="M854.5,210.7H836v-12.6h51.3v12.6h-18.5v52.2h-14.3V210.7z"/>
	<path class="st0" d="M919.3,235.2l-24.4-37.2h17.8l13.7,24.3l14.6-24.3h16.9l-24.4,37.2v27.7h-14.3V235.2z"/>
</g>
<g>
	<path class="st0" d="M374.7,104.1h7.2v52.8h-7.2V104.1z"/>
	<path class="st0" d="M392.2,121.6h6.7v5.4h0.1c0.8-1.9,2.3-3.4,4.4-4.6c2.1-1.2,4.5-1.8,7.2-1.8c1.7,0,3.3,0.3,4.9,0.8
		c1.6,0.5,2.9,1.3,4.1,2.4c1.2,1.1,2.1,2.5,2.8,4.2c0.7,1.7,1,3.7,1,6.1v22.7h-6.7V136c0-1.6-0.2-3-0.7-4.2c-0.4-1.2-1-2.1-1.8-2.8
		s-1.6-1.2-2.6-1.6c-1-0.3-2-0.5-3-0.5c-1.4,0-2.7,0.2-3.9,0.7c-1.2,0.4-2.2,1.2-3.1,2.1c-0.9,1-1.6,2.2-2.1,3.7
		c-0.5,1.5-0.7,3.3-0.7,5.3v18.2h-6.7V121.6z"/>
	<path class="st0" d="M451.1,127.4h-9.6v16c0,1,0,2,0.1,2.9c0,1,0.2,1.8,0.6,2.6c0.3,0.8,0.8,1.4,1.5,1.9c0.7,0.5,1.7,0.7,2.9,0.7
		c0.8,0,1.6-0.1,2.5-0.2c0.8-0.1,1.6-0.4,2.3-0.8v6.1c-0.8,0.4-1.8,0.8-3.1,0.9c-1.3,0.2-2.2,0.3-2.9,0.3c-2.6,0-4.6-0.4-6-1.1
		c-1.4-0.7-2.5-1.7-3.1-2.8c-0.7-1.1-1.1-2.4-1.2-3.8c-0.1-1.4-0.2-2.8-0.2-4.3v-18.4H427v-5.8h7.8v-9.9h6.7v9.9h9.6V127.4z"/>
	<path class="st0" d="M463.4,141.7c0,1.5,0.3,2.9,1,4.2s1.6,2.3,2.6,3.2c1.1,0.9,2.4,1.6,3.8,2.1c1.4,0.5,2.9,0.7,4.5,0.7
		c2.1,0,3.9-0.5,5.4-1.5c1.5-1,3-2.2,4.2-3.8l5.1,3.9c-3.7,4.8-8.9,7.2-15.7,7.2c-2.8,0-5.3-0.5-7.6-1.4c-2.3-0.9-4.2-2.2-5.7-3.9
		c-1.6-1.7-2.8-3.6-3.6-5.9c-0.8-2.3-1.3-4.7-1.3-7.3c0-2.6,0.5-5.1,1.4-7.3c0.9-2.3,2.2-4.2,3.8-5.9c1.6-1.7,3.5-3,5.8-3.9
		c2.2-0.9,4.7-1.4,7.3-1.4c3.1,0,5.8,0.5,7.9,1.6c2.2,1.1,3.9,2.5,5.3,4.3c1.4,1.8,2.4,3.8,3,6c0.6,2.2,0.9,4.5,0.9,6.7v2.4H463.4z
		 M484.5,136.3c0-1.5-0.3-2.9-0.7-4.1c-0.4-1.2-1.1-2.3-1.9-3.2c-0.8-0.9-1.9-1.6-3.2-2.2c-1.3-0.5-2.7-0.8-4.4-0.8
		c-1.6,0-3.1,0.3-4.5,0.9c-1.4,0.6-2.5,1.4-3.5,2.4c-0.9,1-1.7,2.1-2.2,3.3c-0.5,1.2-0.8,2.4-0.8,3.6H484.5z"/>
	<path class="st0" d="M498.3,121.6h6.7v5.4h0.1c0.4-0.9,1-1.8,1.8-2.6c0.7-0.8,1.6-1.4,2.5-2c0.9-0.5,1.9-1,3-1.3
		c1.1-0.3,2.2-0.5,3.3-0.5c1.1,0,2.1,0.1,3,0.4l-0.3,7.2c-0.5-0.1-1.1-0.3-1.6-0.4c-0.5-0.1-1.1-0.1-1.6-0.1c-3.3,0-5.8,0.9-7.5,2.8
		c-1.7,1.8-2.6,4.7-2.6,8.6v17.7h-6.7V121.6z"/>
	<path class="st0" d="M524.4,121.6h6.7v5.4h0.1c0.8-1.9,2.3-3.4,4.4-4.6c2.1-1.2,4.5-1.8,7.2-1.8c1.7,0,3.3,0.3,4.9,0.8
		c1.6,0.5,2.9,1.3,4.1,2.4c1.2,1.1,2.1,2.5,2.8,4.2c0.7,1.7,1,3.7,1,6.1v22.7H549V136c0-1.6-0.2-3-0.7-4.2c-0.4-1.2-1-2.1-1.8-2.8
		c-0.7-0.7-1.6-1.2-2.6-1.6c-1-0.3-2-0.5-3-0.5c-1.4,0-2.7,0.2-3.9,0.7c-1.2,0.4-2.2,1.2-3.1,2.1c-0.9,1-1.6,2.2-2.1,3.7
		c-0.5,1.5-0.7,3.3-0.7,5.3v18.2h-6.7V121.6z"/>
	<path class="st0" d="M569.4,141.7c0,1.5,0.3,2.9,1,4.2c0.7,1.3,1.6,2.3,2.6,3.2c1.1,0.9,2.4,1.6,3.8,2.1c1.4,0.5,2.9,0.7,4.5,0.7
		c2.1,0,3.9-0.5,5.4-1.5c1.5-1,3-2.2,4.3-3.8l5.1,3.9c-3.7,4.8-8.9,7.2-15.7,7.2c-2.8,0-5.3-0.5-7.6-1.4c-2.3-0.9-4.2-2.2-5.7-3.9
		c-1.6-1.7-2.8-3.6-3.6-5.9c-0.8-2.3-1.3-4.7-1.3-7.3c0-2.6,0.5-5.1,1.4-7.3c0.9-2.3,2.2-4.2,3.8-5.9c1.6-1.7,3.5-3,5.8-3.9
		c2.2-0.9,4.7-1.4,7.3-1.4c3.1,0,5.8,0.5,7.9,1.6c2.2,1.1,3.9,2.5,5.3,4.3c1.4,1.8,2.4,3.8,3,6c0.6,2.2,0.9,4.5,0.9,6.7v2.4H569.4z
		 M590.6,136.3c-0.1-1.5-0.3-2.9-0.7-4.1c-0.4-1.2-1.1-2.3-1.9-3.2c-0.8-0.9-1.9-1.6-3.2-2.2c-1.3-0.5-2.7-0.8-4.4-0.8
		c-1.6,0-3.1,0.3-4.5,0.9c-1.4,0.6-2.5,1.4-3.5,2.4c-0.9,1-1.7,2.1-2.2,3.3c-0.5,1.2-0.8,2.4-0.8,3.6H590.6z"/>
	<path class="st0" d="M623.2,127.4h-9.6v16c0,1,0,2,0.1,2.9c0,1,0.2,1.8,0.6,2.6c0.3,0.8,0.8,1.4,1.5,1.9c0.7,0.5,1.7,0.7,2.9,0.7
		c0.8,0,1.6-0.1,2.5-0.2c0.8-0.1,1.6-0.4,2.3-0.8v6.1c-0.8,0.4-1.8,0.8-3.1,0.9c-1.3,0.2-2.2,0.3-2.9,0.3c-2.6,0-4.6-0.4-6-1.1
		c-1.4-0.7-2.5-1.7-3.1-2.8c-0.7-1.1-1.1-2.4-1.2-3.8c-0.1-1.4-0.2-2.8-0.2-4.3v-18.4h-7.8v-5.8h7.8v-9.9h6.7v9.9h9.6V127.4z"/>
	<path class="st0" d="M647.9,139.2c0-2.6,0.5-5,1.5-7.2c1-2.2,2.3-4.2,4-5.9c1.7-1.7,3.7-3,6-4c2.3-1,4.7-1.5,7.4-1.5
		c2.6,0,5.1,0.5,7.4,1.5c2.3,1,4.3,2.3,6,4c1.7,1.7,3,3.7,4,5.9c1,2.2,1.5,4.6,1.5,7.2c0,2.6-0.5,5-1.5,7.3c-1,2.3-2.3,4.2-4,5.9
		c-1.7,1.7-3.7,3-6,4c-2.3,1-4.7,1.5-7.4,1.5c-2.6,0-5.1-0.5-7.4-1.5c-2.3-1-4.3-2.3-6-4c-1.7-1.7-3-3.6-4-5.9
		C648.4,144.2,647.9,141.8,647.9,139.2z M655.1,139.2c0,1.8,0.3,3.4,0.8,5c0.5,1.5,1.3,2.8,2.3,3.9c1,1.1,2.2,1.9,3.7,2.5
		c1.4,0.6,3.1,0.9,4.8,0.9c1.8,0,3.4-0.3,4.8-0.9c1.4-0.6,2.7-1.5,3.7-2.5c1-1.1,1.8-2.4,2.3-3.9c0.5-1.5,0.8-3.2,0.8-5
		s-0.3-3.4-0.8-5c-0.5-1.5-1.3-2.8-2.3-3.9c-1-1.1-2.2-1.9-3.7-2.5c-1.4-0.6-3.1-0.9-4.8-0.9c-1.8,0-3.4,0.3-4.8,0.9
		c-1.4,0.6-2.7,1.5-3.7,2.5c-1,1.1-1.8,2.4-2.3,3.9C655.3,135.8,655.1,137.4,655.1,139.2z"/>
	<path class="st0" d="M695,127.4h-7.6v-5.8h7.6v-7.9c0-4.7,0.9-8.2,2.7-10.6c1.8-2.3,4.9-3.5,9.4-3.5c0.7,0,1.5,0,2.3,0.1
		s1.7,0.2,2.6,0.4l-0.7,6c-0.6-0.2-1.3-0.4-1.9-0.5c-0.6-0.1-1.2-0.1-1.9-0.1c-1.2,0-2.2,0.2-3,0.6s-1.3,0.9-1.8,1.6
		c-0.4,0.7-0.7,1.5-0.8,2.5c-0.1,1-0.2,2.1-0.2,3.3v8.1h8v5.8h-8.1v29.5H695V127.4z"/>
	<path class="st0" d="M764,110.8h-17v-6.7h41.2v6.7h-17v46.1H764V110.8z"/>
	<path class="st0" d="M792.6,100.5h6.7V127h0.1c0.8-1.9,2.3-3.4,4.4-4.6c2.1-1.2,4.5-1.8,7.2-1.8c1.7,0,3.3,0.3,4.9,0.8
		c1.6,0.5,2.9,1.3,4.1,2.4c1.2,1.1,2.1,2.5,2.8,4.2c0.7,1.7,1,3.7,1,6.1v22.7h-6.7V136c0-1.6-0.2-3-0.7-4.2c-0.4-1.2-1-2.1-1.8-2.8
		c-0.7-0.7-1.6-1.2-2.6-1.6c-1-0.3-2-0.5-3-0.5c-1.4,0-2.7,0.2-3.9,0.7c-1.2,0.4-2.2,1.2-3.1,2.1c-0.9,1-1.6,2.2-2.1,3.7
		s-0.7,3.3-0.7,5.3v18.2h-6.7V100.5z"/>
	<path class="st0" d="M831.5,108.9c0-1.3,0.5-2.5,1.5-3.5c1-1,2.1-1.5,3.5-1.5c1.3,0,2.5,0.5,3.5,1.5s1.5,2.1,1.5,3.5
		c0,1.3-0.5,2.5-1.5,3.5c-1,1-2.1,1.5-3.5,1.5c-1.3,0-2.5-0.5-3.5-1.5C832,111.4,831.5,110.2,831.5,108.9z M833.1,121.6h6.7v35.3
		h-6.7V121.6z"/>
	<path class="st0" d="M849,121.6h6.7v5.4h0.1c0.8-1.9,2.3-3.4,4.4-4.6c2.1-1.2,4.5-1.8,7.2-1.8c1.7,0,3.3,0.3,4.9,0.8
		c1.6,0.5,2.9,1.3,4.1,2.4c1.2,1.1,2.1,2.5,2.8,4.2c0.7,1.7,1,3.7,1,6.1v22.7h-6.7V136c0-1.6-0.2-3-0.7-4.2c-0.4-1.2-1-2.1-1.8-2.8
		c-0.7-0.7-1.6-1.2-2.6-1.6c-1-0.3-2-0.5-3-0.5c-1.4,0-2.7,0.2-3.9,0.7c-1.2,0.4-2.2,1.2-3.1,2.1c-0.9,1-1.6,2.2-2.1,3.7
		s-0.7,3.3-0.7,5.3v18.2H849V121.6z"/>
	<path class="st0" d="M924.3,156.6c0,2.7-0.5,5.1-1.4,7.3c-0.9,2.2-2.2,4.1-3.9,5.7c-1.7,1.6-3.7,2.9-6.1,3.8
		c-2.4,0.9-5,1.3-7.9,1.3c-3.4,0-6.5-0.5-9.3-1.4c-2.8-0.9-5.5-2.6-8-4.9l4.5-5.7c1.7,1.9,3.6,3.3,5.7,4.3c2,1,4.3,1.5,6.9,1.5
		c2.5,0,4.5-0.4,6.2-1.1c1.6-0.7,2.9-1.7,3.9-2.8c1-1.1,1.7-2.4,2.1-3.9c0.4-1.5,0.6-2.9,0.6-4.4v-5.2h-0.2c-1.3,2.1-3,3.7-5.3,4.7
		c-2.2,1-4.5,1.5-7,1.5c-2.6,0-5-0.5-7.2-1.4c-2.2-0.9-4.1-2.2-5.7-3.8c-1.6-1.6-2.8-3.5-3.7-5.7c-0.9-2.2-1.3-4.6-1.3-7.2
		c0-2.6,0.4-5,1.3-7.3c0.8-2.3,2.1-4.2,3.6-5.9c1.6-1.7,3.5-3,5.7-4c2.2-0.9,4.7-1.4,7.4-1.4c2.4,0,4.7,0.5,7,1.6
		c2.3,1,4,2.5,5.3,4.4h0.1v-5.1h6.7V156.6z M906,126.9c-1.8,0-3.4,0.3-4.8,0.9c-1.4,0.6-2.7,1.5-3.7,2.5c-1,1.1-1.8,2.4-2.3,3.9
		c-0.5,1.5-0.8,3.2-0.8,5c0,3.6,1,6.5,3.1,8.6c2.1,2.2,4.9,3.2,8.5,3.2s6.4-1.1,8.5-3.2c2.1-2.2,3.1-5,3.1-8.6c0-1.8-0.3-3.4-0.8-5
		c-0.5-1.5-1.3-2.8-2.3-3.9c-1-1.1-2.2-1.9-3.7-2.5C909.4,127.2,907.8,126.9,906,126.9z"/>
	<path class="st0" d="M951.8,130.4c-0.8-1-1.8-1.8-2.9-2.5c-1.2-0.7-2.6-1-4.3-1c-1.6,0-3,0.3-4.1,1c-1.2,0.7-1.8,1.7-1.8,2.9
		c0,1,0.3,1.9,1,2.5c0.7,0.6,1.5,1.2,2.4,1.6c0.9,0.4,1.9,0.7,2.9,0.9c1,0.2,1.9,0.4,2.7,0.5c1.4,0.3,2.8,0.8,4.1,1.3
		c1.3,0.5,2.4,1.1,3.3,1.9c0.9,0.8,1.6,1.8,2.2,2.9c0.5,1.1,0.8,2.5,0.8,4.2c0,2-0.4,3.7-1.3,5.1c-0.8,1.4-1.9,2.6-3.3,3.5
		c-1.3,0.9-2.9,1.5-4.6,1.9s-3.4,0.6-5.2,0.6c-2.9,0-5.5-0.4-7.7-1.3c-2.2-0.9-4.2-2.5-5.9-4.9l5.1-4.2c1.1,1.1,2.3,2.1,3.7,2.9
		c1.3,0.8,3,1.3,4.9,1.3c0.8,0,1.7-0.1,2.6-0.3c0.9-0.2,1.6-0.4,2.3-0.8c0.7-0.4,1.2-0.8,1.6-1.4c0.4-0.6,0.6-1.2,0.6-2
		c0-1-0.3-1.8-0.9-2.5c-0.6-0.6-1.4-1.2-2.2-1.5c-0.9-0.4-1.8-0.7-2.8-0.9c-1-0.2-1.8-0.4-2.6-0.6c-1.4-0.3-2.8-0.7-4.1-1.2
		c-1.3-0.4-2.4-1-3.4-1.8c-1-0.7-1.8-1.7-2.4-2.8c-0.6-1.1-0.9-2.6-0.9-4.3c0-1.8,0.4-3.4,1.2-4.8c0.8-1.4,1.8-2.5,3.1-3.4
		c1.3-0.9,2.7-1.6,4.3-2s3.2-0.7,4.9-0.7c2.4,0,4.7,0.4,6.9,1.3c2.2,0.9,3.9,2.4,5.2,4.5L951.8,130.4z"/>
</g>
<g>
	<path class="st0" d="M161.7,146l-31.3,18v36l31.3,18.6L193,200v-36L161.7,146z M177.9,191.5l-16.2,9.6l-16.2-9.6v-18.6l16.2-9.3
		l16.2,9.3V191.5z"/>
	<polygon class="st0" points="159.4,111.8 159.4,131.1 90.8,170.6 90.8,151.3 	"/>
	<polygon class="st0" points="159.4,233.6 159.4,252.9 90.8,212.5 90.8,193.2 	"/>
	<polygon class="st1" points="164,233.6 199.9,212.3 199.9,231.6 164,252.9 	"/>
	<polygon class="st1" points="204.5,209.6 223.8,198.1 223.8,217.4 204.5,228.9 	"/>
	
		<rect x="76.2" y="170.9" transform="matrix(-1.836970e-16 1 -1 -1.836970e-16 289.7548 71.291)" class="st0" width="66" height="19.3"/>
	<polygon class="st0" points="233,151.3 233,170.6 164,131.1 164,111.8 	"/>
	<polygon class="st0" points="223.8,147.5 223.8,217.4 204.5,228.9 204.5,147.5 	"/>
</g>
<line class="st2" x1="303.6" y1="104.6" x2="303.6" y2="262.9"/>
</svg>
