<svg id="Layer_1" data-name="Layer 1" xmlns="http://www.w3.org/2000/svg" viewBox="0 0 1920 578"><defs><style>.cls-1,.cls-4,.cls-7{fill:#4f5858;}.cls-2{fill:#6cc04a;}.cls-3{fill:none;stroke:#4f5858;stroke-miterlimit:10;stroke-width:2.03px;}.cls-4{font-size:133.83px;font-family:Avenir-Heavy, Avenir;}.cls-5{letter-spacing:-0.12em;}.cls-6{letter-spacing:0em;}.cls-7{opacity:0.54;font-size:115.27px;font-family:Avenir-Light, Avenir;}.cls-8{letter-spacing:0.02em;}.cls-9{letter-spacing:0.04em;}.cls-10{letter-spacing:0.02em;}.cls-11{letter-spacing:0.08em;}</style></defs><title>IoTu_logo_hero_02</title><path class="cls-1" d="M391.53,218.35,327.8,254.89v73.27l63.73,37.76,63.73-37.76V254.89Zm32.92,92.4-32.92,19.49-32.92-19.49V272.89L391.53,254l32.92,18.87Z"/><polygon class="cls-1" points="386.79 148.6 386.79 187.85 247.36 268.23 247.36 228.99 386.79 148.6"/><polygon class="cls-1" points="386.79 396.33 386.79 435.58 247.36 353.52 247.36 314.27 386.79 396.33"/><polygon class="cls-2" points="396.27 396.33 469.14 353.17 469.14 392.42 396.27 435.58 396.27 396.33"/><polygon class="cls-2" points="478.62 347.55 517.87 324.31 517.87 363.56 478.62 386.8 478.62 347.55"/><rect class="cls-1" x="217.72" y="268.84" width="134.21" height="39.25" transform="translate(573.29 3.64) rotate(90)"/><polygon class="cls-1" points="536.59 228.99 536.59 268.23 396.27 187.85 396.27 148.6 536.59 228.99"/><polygon class="cls-1" points="517.87 221.37 517.87 363.55 478.62 386.8 478.62 221.37 517.87 221.37"/><line class="cls-3" x1="680.12" y1="134.02" x2="680.12" y2="456"/><text class="cls-4" transform="translate(804.67 346.93)">I<tspan class="cls-5" x="37.21" y="0">o</tspan><tspan class="cls-6" x="102.78" y="0">T</tspan></text><text class="cls-7" transform="translate(992.02 346.93)"><tspan class="cls-8">UN</tspan><tspan class="cls-9" x="173.13" y="0">I</tspan><tspan class="cls-10" x="207.71" y="0">VE</tspan><tspan x="349.03" y="0">R</tspan><tspan class="cls-10" x="417.38" y="0">SI</tspan><tspan class="cls-11" x="516.05" y="0">T</tspan><tspan class="cls-8" x="591.43" y="0">Y</tspan></text></svg>