<?xml version="1.0" encoding="utf-8"?>
<!-- Generator: Adobe Illustrator 16.0.3, SVG Export Plug-In . SVG Version: 6.00 Build 0)  -->
<!DOCTYPE svg PUBLIC "-//W3C//DTD SVG 1.1//EN" "http://www.w3.org/Graphics/SVG/1.1/DTD/svg11.dtd">
<svg version="1.1" id="Layer_1" xmlns="http://www.w3.org/2000/svg" xmlns:xlink="http://www.w3.org/1999/xlink" x="0px" y="0px"
	 width="214.875px" height="83.6px" viewBox="0 0 214.875 83.6" enable-background="new 0 0 214.875 83.6" xml:space="preserve">
<g>
	<g>
		<defs>
			<rect id="SVGID_1_" x="0.06" width="214.814" height="83.6"/>
		</defs>
		<clipPath id="SVGID_2_">
			<use xlink:href="#SVGID_1_"  overflow="visible"/>
		</clipPath>
		<polyline clip-path="url(#SVGID_2_)" fill="#FFFFFF" points="36.226,0 0,20.927 0,39.423 36.226,18.351 56.6,30.041 
			52.545,32.396 36.226,23.011 22.031,31.221 54.469,50.002 72.452,39.477 72.452,20.927 36.226,0 		"/>
		<polyline clip-path="url(#SVGID_2_)" fill="#6EBF4C" points="36.226,83.6 72.452,62.719 72.452,44.176 36.226,65.248 
			15.852,53.559 19.907,51.203 36.226,60.586 50.421,52.377 17.983,33.596 0,44.121 0,62.719 36.226,83.6 		"/>
	</g>
	<path fill="#FFFFFF" d="M122.453,25.889c-4.4,0-7.879,1.522-10.432,4.564c-2.445,2.881-3.668,6.52-3.668,10.921
		s1.223,8.042,3.668,10.921c2.553,3.043,6.031,4.564,10.432,4.564c4.347,0,7.877-1.521,10.596-4.564
		c2.553-2.879,3.83-6.52,3.83-10.921s-1.277-8.04-3.83-10.921C130.33,27.411,126.799,25.889,122.453,25.889L122.453,25.889z
		 M108.679,27.519c3.26-4.78,8.122-7.172,14.589-7.172c5.868,0,10.621,2.038,14.262,6.113c3.641,4.022,5.461,8.992,5.461,14.914
		c0,5.923-1.82,10.896-5.461,14.913c-3.641,4.076-8.529,6.115-14.67,6.115c-6.14,0-10.867-2.418-14.181-7.254v22.738h-6.112V20.999
		h6.112V27.519"/>
	<polyline fill="#FFFFFF" points="155.705,61.75 155.705,26.379 147.392,26.379 147.392,21 155.705,21 155.705,6.411 161.817,6.411 
		161.817,21 171.19,21 171.19,26.379 161.817,26.379 161.817,61.75 155.705,61.75 	"/>
	<path fill="#FFFFFF" d="M196.944,56.859c2.608,0,4.917-0.732,6.928-2.201c2.01-1.467,3.477-3.367,4.4-5.705h6.603
		c-1.251,4.021-3.532,7.254-6.847,9.699c-3.478,2.5-7.606,3.75-12.388,3.75c-5.978,0-10.84-2.039-14.589-6.113
		c-3.641-3.965-5.459-8.938-5.459-14.914c0-5.977,1.818-10.948,5.459-14.914c3.749-4.076,8.611-6.114,14.589-6.114
		c4.781,0,8.91,1.251,12.388,3.749c3.314,2.446,5.596,5.679,6.847,9.699h-6.603c-0.924-2.335-2.391-4.238-4.4-5.705
		c-2.011-1.467-4.319-2.201-6.928-2.201c-2.607,0-4.822,0.408-6.643,1.223s-3.355,1.93-4.604,3.342
		c-2.663,2.933-3.993,6.574-3.993,10.921c0,4.348,1.33,7.986,3.993,10.92C188.413,55.338,192.162,56.859,196.944,56.859"/>
</g>
</svg>
